{
  "accessors": [
    {
      "bufferView": 2,
      "componentType": 5126,
      "count": 6,
      "max": [
        0.20118099451065063,
        0.94846498966217041,
        0.21976600587368011
      ],
      "min": [
        -0.76339101791381836,
        -0.099004998803138733,
        0.20247800648212433
      ],
      "type": "VEC3"
    },
    {
      "bufferView": 1,
      "componentType": 5126,
      "count": 6,
      "max": [
        0,
        0
      ],
      "min": [
        0,
        0
      ],
      "type": "VEC2"
    },
    {
      "bufferView": 0,
      "componentType": 5125,
      "count": 6,
      "max": [
        5
      ],
      "min": [
        0
      ],
      "type": "SCALAR"
    },
    {
      "bufferView": 2,
      "byteOffset": 72,
      "componentType": 5126,
      "count": 65532,
      "max": [
        0.47641399502754211,
        0.87407302856445312,
        3.03102707862854
      ],
      "min": [
        -0.57441002130508423,
        -1.1047799587249756,
        0.50822198390960693
      ],
      "type": "VEC3"
    },
    {
      "bufferView": 2,
      "byteOffset": 786456,
      "componentType": 5126,
      "count": 65532,
      "max": [
        0.99999845027923584,
        0.99999690055847168,
        0.99957722425460815
      ],
      "min": [
        -0.99999213218688965,
        -0.99998867511749268,
        -0.99968212842941284
      ],
      "type": "VEC3"
    },
    {
      "bufferView": 1,
      "byteOffset": 48,
      "componentType": 5126,
      "count": 65532,
      "max": [
        0.99221599102020264,
        0.99706697463989258
      ],
      "min": [
        0.014259999617934227,
        0.0037459998857229948
      ],
      "type": "VEC2"
    },
    {
      "bufferView": 0,
      "byteOffset": 24,
      "componentType": 5125,
      "count": 351459,
      "max": [
        65531
      ],
      "min": [
        0
      ],
      "type": "SCALAR"
    },
    {
      "bufferView": 2,
      "byteOffset": 1572840,
      "componentType": 5126,
      "count": 38057,
      "max": [
        0.59734100103378296,
        0.87295198440551758,
        1.4813970327377319
      ],
      "min": [
        -0.76603502035140991,
        -0.81593000888824463,
        0.20274199545383453
      ],
      "type": "VEC3"
    },
    {
      "bufferView": 2,
      "byteOffset": 2029524,
      "componentType": 5126,
      "count": 38057,
      "max": [
        0.99997580051422119,
        0.99994289875030518,
        0.99999737739562988
      ],
      "min": [
        -0.99984294176101685,
        -0.99968975782394409,
        -0.99984222650527954
      ],
      "type": "VEC3"
    },
    {
      "bufferView": 1,
      "byteOffset": 524304,
      "componentType": 5126,
      "count": 38057,
      "max": [
        0.98971599340438843,
        0.99795401096343994
      ],
      "min": [
        0.026079999282956123,
        0.0054799998179078102
      ],
      "type": "VEC2"
    },
    {
      "bufferView": 0,
      "byteOffset": 1405860,
      "componentType": 5125,
      "count": 193017,
      "max": [
        38056
      ],
      "min": [
        0
      ],
      "type": "SCALAR"
    }
  ],
  "asset": {
    "extras": {
      "author": "Digital Heritage (https://sketchfab.com/3dheritage)",
      "license": "CC-BY-4.0 (http://creativecommons.org/licenses/by/4.0/)",
      "source": "https://sketchfab.com/3d-models/follow-the-white-rabbit-llandudno-simon-hedger-7c24c68a603849638179294a75c3111f",
      "title": "Follow the White Rabbit; Llandudno, Simon Hedger"
    },
    "generator": "Sketchfab-9.65.0",
    "version": "2.0"
  },
  "bufferViews": [
    {
      "buffer": 0,
      "byteLength": 2177928,
      "byteOffset": 0,
      "name": "floatBufferViews",
      "target": 34963
    },
    {
      "buffer": 0,
      "byteLength": 828760,
      "byteOffset": 2177928,
      "byteStride": 8,
      "name": "floatBufferViews",
      "target": 34962
    },
    {
      "buffer": 0,
      "byteLength": 2486208,
      "byteOffset": 3006688,
      "byteStride": 12,
      "name": "floatBufferViews",
      "target": 34962
    }
  ],
  "buffers": [
    {
      "byteLength": 5492896,
      "uri": "scene.bin"
    }
  ],
  "images": [
    {
      "uri": "textures/rabbit_baseColor.jpeg"
    }
  ],
  "materials": [
    {
      "doubleSided": true,
      "emissiveFactor": [
        0,
        0,
        0
      ],
      "name": "rabbit",
      "pbrMetallicRoughness": {
        "baseColorFactor": [
          1,
          1,
          1,
          1
        ],
        "baseColorTexture": {
          "index": 0,
          "texCoord": 0
        },
        "metallicFactor": 0,
        "roughnessFactor": 0.59999999999999998
      }
    }
  ],
  "meshes": [
    {
      "primitives": [
        {
          "attributes": {
            "POSITION": 0,
            "TEXCOORD_0": 1
          },
          "indices": 2,
          "material": 0,
          "mode": 1
        }
      ]
    },
    {
      "primitives": [
        {
          "attributes": {
            "NORMAL": 4,
            "POSITION": 3,
            "TEXCOORD_0": 5
          },
          "indices": 6,
          "material": 0,
          "mode": 4
        }
      ]
    },
    {
      "primitives": [
        {
          "attributes": {
            "NORMAL": 8,
            "POSITION": 7,
            "TEXCOORD_0": 9
          },
          "indices": 10,
          "material": 0,
          "mode": 4
        }
      ]
    }
  ],
  "nodes": [
    {
      "children": [
        1
      ],
      "name": "RootNode (gltf orientation matrix)",
      "rotation": [
        -0.70710678118654746,
        -0,
        -0,
        0.70710678118654757
      ]
    },
    {
      "children": [
        2
      ],
      "matrix": [
        0.98680329322814941,
        0,
        0,
        0,
        0,
        0.98680329322814941,
        0,
        0,
        0,
        0,
        0.98680329322814941,
        0,
        0,
        0,
        0,
        1
      ],
      "name": "RootNode (model correction matrix)"
    },
    {
      "children": [
        3,
        4,
        5
      ],
      "name": "rabbitpp.obj.cleaner"
    },
    {
      "mesh": 0,
      "name": ""
    },
    {
      "mesh": 1,
      "name": ""
    },
    {
      "mesh": 2,
      "name": ""
    }
  ],
  "samplers": [
    {
      "magFilter": 9729,
      "minFilter": 9987,
      "wrapS": 10497,
      "wrapT": 10497
    }
  ],
  "scene": 0,
  "scenes": [
    {
      "name": "OSG_Scene",
      "nodes": [
        0
      ]
    }
  ],
  "textures": [
    {
      "sampler": 0,
      "source": 0
    }
  ]
}

